<mxfile host="app.diagrams.net" modified="2023-06-05T10:21:40.410Z" agent="Mozilla/5.0 (Windows NT 10.0; Win64; x64) AppleWebKit/537.36 (KHTML, like Gecko) Chrome/114.0.0.0 Safari/537.36 Edg/114.0.1823.37" etag="qWowkj0MuSwCMFGVSi3H" version="21.3.7" type="device">
  <diagram name="페이지-1" id="y9N2woqpneQv74yiw_0s">
    <mxGraphModel dx="948" dy="1121" grid="0" gridSize="10" guides="1" tooltips="1" connect="1" arrows="1" fold="1" page="0" pageScale="1" pageWidth="827" pageHeight="1169" math="0" shadow="0">
      <root>
        <mxCell id="0" />
        <mxCell id="1" parent="0" />
        <mxCell id="A1u2gy2EGe1-X32JZRQJ-1" value="시스템" style="shape=umlLifeline;perimeter=lifelinePerimeter;whiteSpace=wrap;html=1;container=1;dropTarget=0;collapsible=0;recursiveResize=0;outlineConnect=0;portConstraint=eastwest;newEdgeStyle={&quot;edgeStyle&quot;:&quot;elbowEdgeStyle&quot;,&quot;elbow&quot;:&quot;vertical&quot;,&quot;curved&quot;:0,&quot;rounded&quot;:0};fontSize=16;" parent="1" vertex="1">
          <mxGeometry x="185" y="50" width="100" height="359" as="geometry" />
        </mxCell>
        <mxCell id="A1u2gy2EGe1-X32JZRQJ-12" value="내용이 올바른지 확인" style="html=1;align=left;spacingLeft=2;endArrow=block;rounded=0;edgeStyle=orthogonalEdgeStyle;curved=0;rounded=0;fontSize=12;startSize=8;endSize=8;entryX=0.538;entryY=0.585;entryDx=0;entryDy=0;entryPerimeter=0;" parent="A1u2gy2EGe1-X32JZRQJ-1" edge="1">
          <mxGeometry relative="1" as="geometry">
            <mxPoint x="49.5" y="148" as="sourcePoint" />
            <Array as="points">
              <mxPoint x="119" y="148" />
              <mxPoint x="119" y="178" />
              <mxPoint x="76" y="178" />
              <mxPoint x="76" y="177" />
            </Array>
            <mxPoint x="53.799999999999955" y="176.5" as="targetPoint" />
          </mxGeometry>
        </mxCell>
        <mxCell id="A1u2gy2EGe1-X32JZRQJ-17" value="" style="html=1;points=[];perimeter=orthogonalPerimeter;outlineConnect=0;targetShapes=umlLifeline;portConstraint=eastwest;newEdgeStyle={&quot;edgeStyle&quot;:&quot;elbowEdgeStyle&quot;,&quot;elbow&quot;:&quot;vertical&quot;,&quot;curved&quot;:0,&quot;rounded&quot;:0};fontSize=16;" parent="A1u2gy2EGe1-X32JZRQJ-1" vertex="1">
          <mxGeometry x="45" y="324" width="10" height="24" as="geometry" />
        </mxCell>
        <mxCell id="A1u2gy2EGe1-X32JZRQJ-3" value="사용자&amp;nbsp;" style="shape=umlLifeline;perimeter=lifelinePerimeter;whiteSpace=wrap;html=1;container=1;dropTarget=0;collapsible=0;recursiveResize=0;outlineConnect=0;portConstraint=eastwest;newEdgeStyle={&quot;edgeStyle&quot;:&quot;elbowEdgeStyle&quot;,&quot;elbow&quot;:&quot;vertical&quot;,&quot;curved&quot;:0,&quot;rounded&quot;:0};fontSize=16;" parent="1" vertex="1">
          <mxGeometry x="29" y="50" width="100" height="356" as="geometry" />
        </mxCell>
        <mxCell id="A1u2gy2EGe1-X32JZRQJ-7" value="" style="html=1;points=[];perimeter=orthogonalPerimeter;outlineConnect=0;targetShapes=umlLifeline;portConstraint=eastwest;newEdgeStyle={&quot;edgeStyle&quot;:&quot;elbowEdgeStyle&quot;,&quot;elbow&quot;:&quot;vertical&quot;,&quot;curved&quot;:0,&quot;rounded&quot;:0};fontSize=16;" parent="A1u2gy2EGe1-X32JZRQJ-3" vertex="1">
          <mxGeometry x="45" y="81" width="10" height="26" as="geometry" />
        </mxCell>
        <mxCell id="A1u2gy2EGe1-X32JZRQJ-4" value="" style="html=1;points=[];perimeter=orthogonalPerimeter;outlineConnect=0;targetShapes=umlLifeline;portConstraint=eastwest;newEdgeStyle={&quot;edgeStyle&quot;:&quot;elbowEdgeStyle&quot;,&quot;elbow&quot;:&quot;vertical&quot;,&quot;curved&quot;:0,&quot;rounded&quot;:0};fontSize=16;" parent="1" vertex="1">
          <mxGeometry x="230" y="109" width="10" height="20" as="geometry" />
        </mxCell>
        <mxCell id="A1u2gy2EGe1-X32JZRQJ-5" value="작업 생성 버튼 클릭" style="html=1;verticalAlign=bottom;endArrow=block;edgeStyle=elbowEdgeStyle;elbow=vertical;curved=0;rounded=0;fontSize=12;startSize=8;endSize=8;" parent="1" target="A1u2gy2EGe1-X32JZRQJ-1" edge="1">
          <mxGeometry width="80" relative="1" as="geometry">
            <mxPoint x="78" y="110" as="sourcePoint" />
            <mxPoint x="184" y="108" as="targetPoint" />
          </mxGeometry>
        </mxCell>
        <mxCell id="A1u2gy2EGe1-X32JZRQJ-6" value="원소 입력 창 표시" style="html=1;verticalAlign=bottom;endArrow=block;edgeStyle=elbowEdgeStyle;elbow=vertical;curved=0;rounded=0;fontSize=12;startSize=8;endSize=8;" parent="1" source="A1u2gy2EGe1-X32JZRQJ-1" edge="1">
          <mxGeometry width="80" relative="1" as="geometry">
            <mxPoint x="199.5" y="132" as="sourcePoint" />
            <mxPoint x="78.5" y="132" as="targetPoint" />
          </mxGeometry>
        </mxCell>
        <mxCell id="A1u2gy2EGe1-X32JZRQJ-8" value="정보 입력 후 확인 버튼 클릭" style="html=1;verticalAlign=bottom;endArrow=block;edgeStyle=elbowEdgeStyle;elbow=vertical;curved=0;rounded=0;fontSize=12;startSize=8;endSize=8;" parent="1" source="A1u2gy2EGe1-X32JZRQJ-3" target="A1u2gy2EGe1-X32JZRQJ-1" edge="1">
          <mxGeometry width="80" relative="1" as="geometry">
            <mxPoint x="160" y="200" as="sourcePoint" />
            <mxPoint x="203" y="198" as="targetPoint" />
          </mxGeometry>
        </mxCell>
        <mxCell id="A1u2gy2EGe1-X32JZRQJ-9" value="" style="html=1;points=[];perimeter=orthogonalPerimeter;outlineConnect=0;targetShapes=umlLifeline;portConstraint=eastwest;newEdgeStyle={&quot;edgeStyle&quot;:&quot;elbowEdgeStyle&quot;,&quot;elbow&quot;:&quot;vertical&quot;,&quot;curved&quot;:0,&quot;rounded&quot;:0};fontSize=16;" parent="1" vertex="1">
          <mxGeometry x="230" y="196" width="10" height="145" as="geometry" />
        </mxCell>
        <mxCell id="A1u2gy2EGe1-X32JZRQJ-13" value="생성 완료 알림&amp;nbsp;" style="html=1;verticalAlign=bottom;endArrow=open;dashed=1;endSize=8;edgeStyle=elbowEdgeStyle;elbow=vertical;curved=0;rounded=0;fontSize=12;" parent="1" edge="1">
          <mxGeometry relative="1" as="geometry">
            <mxPoint x="240" y="277" as="sourcePoint" />
            <mxPoint x="78.5" y="277" as="targetPoint" />
          </mxGeometry>
        </mxCell>
        <mxCell id="A1u2gy2EGe1-X32JZRQJ-14" value="alt" style="shape=umlFrame;whiteSpace=wrap;html=1;pointerEvents=0;fontSize=16;width=138;height=15;" parent="1" vertex="1">
          <mxGeometry x="-13" y="235" width="363" height="122" as="geometry" />
        </mxCell>
        <mxCell id="A1u2gy2EGe1-X32JZRQJ-15" value="" style="endArrow=none;dashed=1;html=1;rounded=0;fontSize=12;startSize=8;endSize=8;curved=1;exitX=0.007;exitY=0.59;exitDx=0;exitDy=0;exitPerimeter=0;entryX=1.005;entryY=0.59;entryDx=0;entryDy=0;entryPerimeter=0;" parent="1" source="A1u2gy2EGe1-X32JZRQJ-14" target="A1u2gy2EGe1-X32JZRQJ-14" edge="1">
          <mxGeometry width="50" height="50" relative="1" as="geometry">
            <mxPoint x="124" y="308" as="sourcePoint" />
            <mxPoint x="234.5" y="308" as="targetPoint" />
            <Array as="points">
              <mxPoint x="189" y="308" />
            </Array>
          </mxGeometry>
        </mxCell>
        <mxCell id="A1u2gy2EGe1-X32JZRQJ-16" value="오류 메세지 출력" style="html=1;verticalAlign=bottom;endArrow=open;dashed=1;endSize=8;edgeStyle=elbowEdgeStyle;elbow=vertical;curved=0;rounded=0;fontSize=12;" parent="1" target="A1u2gy2EGe1-X32JZRQJ-3" edge="1">
          <mxGeometry relative="1" as="geometry">
            <mxPoint x="238" y="328" as="sourcePoint" />
            <mxPoint x="158" y="328" as="targetPoint" />
          </mxGeometry>
        </mxCell>
        <mxCell id="A1u2gy2EGe1-X32JZRQJ-18" value="취소 버튼 클릭" style="html=1;verticalAlign=bottom;endArrow=block;edgeStyle=elbowEdgeStyle;elbow=vertical;curved=0;rounded=0;fontSize=12;startSize=8;endSize=8;" parent="1" edge="1">
          <mxGeometry width="80" relative="1" as="geometry">
            <mxPoint x="78.5" y="381" as="sourcePoint" />
            <mxPoint x="230" y="381" as="targetPoint" />
          </mxGeometry>
        </mxCell>
        <mxCell id="A1u2gy2EGe1-X32JZRQJ-19" value="취소라 알림&amp;nbsp;" style="html=1;verticalAlign=bottom;endArrow=open;dashed=1;endSize=8;edgeStyle=elbowEdgeStyle;elbow=vertical;curved=0;rounded=0;fontSize=12;" parent="1" edge="1">
          <mxGeometry relative="1" as="geometry">
            <mxPoint x="230" y="402" as="sourcePoint" />
            <mxPoint x="78.5" y="402" as="targetPoint" />
          </mxGeometry>
        </mxCell>
        <mxCell id="A1u2gy2EGe1-X32JZRQJ-20" value="uc004 작업을 생성한다" style="shape=umlFrame;whiteSpace=wrap;html=1;pointerEvents=0;fontSize=16;width=178;height=20;" parent="1" vertex="1">
          <mxGeometry x="-39" y="-14" width="483" height="484" as="geometry" />
        </mxCell>
      </root>
    </mxGraphModel>
  </diagram>
</mxfile>
